#!OML:ASF G:\JayActor3\Patient Classification 1\Patient 1\Session 2\male.ASF
:FULLY-SPECIFIED
:DEGREES
3185
root -40.2215 15.6873 -4.99846 575.775 87.1388 -1588.64
lowerback 18.9939 1.22834 -1.44648
upperback 12.8979 2.47166 1.13272
thorax 3.20122 1.54387 1.6523
lowerneck 2.9475 -1.51597 -3.82766
upperneck -15.9834 -1.15813 6.37015
head -5.20217 -0.62077 2.67529
rclavicle -2.16675e-014 1.53064e-014
rhumerus -14.5507 12.2487 -67.5472
rradius 81.6109
rwrist 4.09961
rhand -45.1734 24.9899
rfingers 7.12502
rthumb -17.9505 -4.20174
lclavicle -2.16675e-014 1.53064e-014
lhumerus 9.48414 -13.9592 62.803
lradius 87.232
lwrist 14.2167
lhand -39.6507 10.7981
lfingers 7.12502
lthumb -12.631 40.3962
rfemur -31.5866 -9.32701 22.3881
rtibia 61.8709
rfoot -32.7163 -10.1627
rtoes 6.41413
lfemur -36.2944 0.926074 -22.9411
ltibia 53.7148
lfoot -18.4694 7.9128
ltoes -10.2716
3186
root -40.2244 15.6783 -5.0099 575.843 87.1638 -1588.73
lowerback 19.1755 1.26426 -1.52695
upperback 12.9648 2.51759 1.07339
thorax 3.18305 1.56903 1.62348
lowerneck 3.13661 -1.49044 -3.83726
upperneck -16.2206 -1.11248 6.38614
head -5.31008 -0.600585 2.68509
rclavicle 9.93923e-017 -2.62396e-014
rhumerus -14.4666 11.9094 -67.4887
rradius 81.7707
rwrist 4.17678
rhand -45.1861 24.9621
rfingers 7.12502
rthumb -17.9627 -4.22834
lclavicle 9.93923e-017 -2.62396e-014
lhumerus 9.94526 -13.8293 62.7112
lradius 87.3358
lwrist 14.2273
lhand -39.5561 10.9221
lfingers 7.12502
lthumb -12.5398 40.5258
rfemur -32.2062 -9.45806 22.3829
rtibia 62.5556
rfoot -32.3661 -10.1074
rtoes 5.94202
lfemur -36.551 0.906334 -23.0092
ltibia 53.8514
lfoot -18.495 7.88226
ltoes -10.2806
3187
root -40.2265 15.6692 -5.02169 575.719 87.1612 -1589
lowerback 19.3464 1.29082 -1.59457
upperback 13.027 2.55258 1.02318
thorax 3.16559 1.58897 1.5989
lowerneck 3.32964 -1.46735 -3.84898
upperneck -16.4598 -1.06935 6.40839
head -5.41932 -0.581991 2.6974
rclavicle 1.13307e-014 2.127e-014
rhumerus -14.3866 11.5799 -67.4266
rradius 81.9341
rwrist 4.24975
rhand -45.1957 24.9336
rfingers 7.12502
rthumb -17.9719 -4.25604
lclavicle 1.13307e-014 2.127e-014
lhumerus 10.3889 -13.7086 62.653
lradius 87.4248
lwrist 14.1955
lhand -39.4503 11.0639
lfingers 7.12502
lthumb -12.4378 40.6738
rfemur -32.8615 -9.60142 22.3812
rtibia 63.3017
rfoot -31.96 -10.0457
rtoes 5.48888
lfemur -36.8115 0.866563 -23.0717
ltibia 53.9996
lfoot -18.5202 7.85733
ltoes -10.313
3188
root -40.2273 15.6601 -5.03381 575.918 87.1259 -1588.93
lowerback 19.5283 1.30844 -1.62419
upperback 13.0892 2.58181 0.984328
thorax 3.14359 1.60827 1.56541
lowerneck 3.52146 -1.44953 -3.86205
upperneck -16.6935 -1.03131 6.44635
head -5.52647 -0.566901 2.71509
rclavicle -1.88845e-015 -2.0276e-014
rhumerus -14.3166 11.2575 -67.3683
rradius 82.1043
rwrist 4.30628
rhand -45.1967 24.9059
rfingers 7.12502
rthumb -17.9729 -4.28362
lclavicle -1.88845e-015 -2.0276e-014
lhumerus 10.8062 -13.5978 62.6277
lradius 87.4992
lwrist 14.1075
lhand -39.3408 11.2333
lfingers 7.12502
lthumb -12.3323 40.8497
rfemur -33.523 -9.74156 22.4069
rtibia 64.1097
rfoot -31.5076 -9.9853
rtoes 5.119
lfemur -37.0417 0.820573 -23.098
ltibia 54.1493
lfoot -18.5564 7.83038
ltoes -10.3301
3189
root -40.2279 15.6501 -5.04711 576.45 87.0915 -1588.52
lowerback 19.6997 1.32528 -1.64352
upperback 13.1537 2.61155 0.958192
thorax 3.12947 1.62781 1.53989
lowerneck 3.68957 -1.43823 -3.8916
upperneck -16.9209 -1.00125 6.49581
head -5.6271 -0.555022 2.7393
rclavicle 1.31198e-014 2.78299e-014
rhumerus -14.2247 10.9525 -67.2939
rradius 82.2749
rwrist 4.33902
rhand -45.1916 24.8834
rfingers 7.12502
rthumb -17.968 -4.30658
lclavicle 1.31198e-014 2.78299e-014
lhumerus 11.1997 -13.4689 62.6565
lradius 87.5595
lwrist 13.9528
lhand -39.2139 11.4194
lfingers 7.12502
lthumb -12.2099 41.043
rfemur -34.2428 -9.86529 22.4381
rtibia 64.9907
rfoot -30.9751 -9.9572
rtoes 4.78272
lfemur -37.2755 0.776962 -23.1138
ltibia 54.2996
lfoot -18.5819 7.82097
ltoes -10.3687
3190
root -40.2265 15.6413 -5.06086 576.091 87.0551 -1588.98
lowerback 19.8696 1.33494 -1.68978
upperback 13.2201 2.62853 0.927063
thorax 3.11846 1.63969 1.5264
lowerneck 3.83322 -1.4386 -3.913
upperneck -17.1316 -0.98518 6.55317
head -5.71772 -0.550683 2.76499
rclavicle 2.55438e-014 -2.5842e-015
rhumerus -14.1318 10.6489 -67.2256
rradius 82.4467
rwrist 4.3553
rhand -45.1819 24.8684
rfingers 7.12502
rthumb -17.9587 -4.32245
lclavicle 2.55438e-014 -2.5842e-015
lhumerus 11.5588 -13.3384 62.7253
lradius 87.6126
lwrist 13.7336
lhand -39.0576 11.6115
lfingers 7.12502
lthumb -12.0592 41.244
rfemur -34.9842 -10.0181 22.4158
rtibia 65.9478
rfoot -30.3651 -9.95873
rtoes 4.52911
lfemur -37.4627 0.706307 -23.1715
ltibia 54.4339
lfoot -18.6122 7.81862
ltoes -10.4174
